<svg width="59" height="51" viewBox="0 0 59 51" fill="none" xmlns="http://www.w3.org/2000/svg">
<path d="M58.8922 22.6193C58.8365 22.0147 58.3007 21.5654 57.696 21.6255C57.0921 21.6812 56.6465 22.2162 56.7022 22.8209C56.7682 23.5318 56.8012 24.2545 56.8012 24.9676C56.8012 37.6712 46.5088 48.006 33.858 48.006C27.7308 48.006 21.9687 45.6101 17.6357 41.2596C17.2069 40.8293 16.5114 40.8279 16.0812 41.2566C15.6509 41.6854 15.6495 42.3817 16.0782 42.8119C20.8268 47.5795 27.1416 50.2048 33.858 50.2048C47.7211 50.2048 58.9999 38.8835 58.9999 24.9676C58.9992 24.187 58.9625 23.397 58.8922 22.6193Z" fill="#FAD264"/>
<path d="M20.2147 21.9589C19.7933 21.5198 19.0978 21.5059 18.6602 21.9273L11.0027 29.2792C10.7565 27.9218 10.6275 26.5403 10.6275 25.1514C10.6275 12.4955 20.9257 2.19874 33.5838 2.19874C39.7044 2.19874 45.4615 4.57852 49.7944 8.89978C50.2254 9.32854 50.9217 9.32707 51.3497 8.89758C51.7785 8.4681 51.777 7.77183 51.3475 7.34307C46.5989 2.60844 40.29 0 33.5838 0C19.7127 0 8.42874 11.2832 8.42874 25.1514C8.42874 26.2545 8.5035 27.3531 8.64569 28.4408L1.8611 21.9273C1.42355 21.5074 0.728743 21.5206 0.306584 21.9589C-0.114109 22.3964 -0.100184 23.0927 0.338099 23.5134L9.49953 32.3083C9.71208 32.5128 9.98692 32.6147 10.261 32.6147C10.5351 32.6147 10.81 32.5128 11.0225 32.3083L20.184 23.5134C20.6215 23.0927 20.6354 22.3964 20.2147 21.9589Z" fill="#FAD264"/>
</svg>
