<svg width="55" height="55" viewBox="0 0 55 55" fill="none" xmlns="http://www.w3.org/2000/svg">
<path d="M27.0643 5.18359C14.9986 5.18359 5.18286 15 5.18286 27.065C5.18286 39.13 14.9993 48.9464 27.0643 48.9464C39.1299 48.9464 48.9463 39.13 48.9463 27.065C48.9463 15 39.1299 5.18359 27.0643 5.18359ZM27.0643 46.6009C16.292 46.6009 7.52772 37.8373 7.52772 27.065C7.52772 16.2927 16.292 7.52845 27.0643 7.52845C37.8366 7.52845 46.6002 16.2927 46.6002 27.065C46.6002 37.8373 37.8366 46.6009 27.0643 46.6009Z" fill="#FAD264"/>
<path d="M32.5932 23.5096L27.8736 28.2292V11.442C27.8736 10.7943 27.3482 10.2695 26.7005 10.2695C26.0528 10.2695 25.5281 10.7943 25.5281 11.442V31.0598C25.5281 31.1372 25.5359 31.2146 25.5515 31.2906C25.558 31.3238 25.5703 31.3544 25.5801 31.3869C25.5918 31.4278 25.6016 31.4695 25.6185 31.5098C25.6347 31.5488 25.6568 31.5839 25.677 31.621C25.6932 31.6515 25.7069 31.6828 25.7264 31.712C25.8122 31.8408 25.9234 31.9513 26.0522 32.0378C26.0762 32.0541 26.1023 32.0645 26.127 32.0781C26.1686 32.1015 26.2089 32.1262 26.2538 32.1451C26.2889 32.1594 26.326 32.1679 26.3617 32.1789C26.3988 32.19 26.4339 32.2043 26.4723 32.2114C26.5477 32.2264 26.6244 32.2348 26.7012 32.2348C26.7779 32.2348 26.8546 32.227 26.93 32.2114C26.9684 32.2036 27.0042 32.19 27.0412 32.1783C27.077 32.1672 27.1134 32.1594 27.1485 32.1451C27.1941 32.1262 27.2357 32.1009 27.2779 32.0768C27.302 32.0632 27.3267 32.0534 27.3501 32.0378C27.4158 31.9942 27.4769 31.9448 27.5315 31.8889L34.252 25.1684C34.7098 24.7106 34.7098 23.968 34.252 23.5102C33.7936 23.0511 33.0516 23.0511 32.5932 23.5096Z" fill="#FAD264"/>
<path d="M27.0647 0C12.1411 0 0 12.1411 0 27.0653C0 41.9896 12.1411 54.13 27.0647 54.13C41.9883 54.13 54.13 41.9889 54.13 27.0653C54.13 12.1417 41.9883 0 27.0647 0ZM27.0647 51.7838C13.4345 51.7838 2.34486 40.6949 2.34486 27.0647C2.34486 13.4345 13.4338 2.34486 27.0647 2.34486C40.6955 2.34486 51.7838 13.4345 51.7838 27.0647C51.7838 40.6949 40.6949 51.7838 27.0647 51.7838Z" fill="#FAD264"/>
</svg>
