<svg width="50" height="50" viewBox="0 0 50 50" fill="none" xmlns="http://www.w3.org/2000/svg">
<circle cx="25" cy="25" r="25" fill="white"/>
<circle cx="25" cy="25" r="20" fill="#E130E3"/>
<path d="M25 38.9555L29.59 34L31 35.5223L25 42L19 35.5223L20.41 34L25 38.9555Z" fill="#F2F2F2"/>
<path fill-rule="evenodd" clip-rule="evenodd" d="M25 10.0352C29.4 10.0352 32.96 13.5752 33 17.9652V23.9652C33 28.3852 29.42 31.9652 25 31.9652C20.58 31.9652 17 28.3852 17 23.9652V17.9652C17.04 13.5752 20.6 10.0352 25 10.0352ZM26 17.9652H31C30.96 15.0252 28.81 12.5952 26 12.1252V17.9652ZM24 12.1252V17.9652H19C19.04 15.0252 21.19 12.5952 24 12.1252ZM25 29.9652C28.31 29.9652 31 27.2752 31 23.9652V19.9652H19V23.9652C19 27.2752 21.69 29.9652 25 29.9652Z" fill="#F2F2F2"/>
</svg>
