<svg width="44" height="44" viewBox="0 0 44 44" fill="none" xmlns="http://www.w3.org/2000/svg">
<circle cx="22" cy="22" r="22" fill="#FAD264"/>
<path d="M34.4549 18.7072L26.1862 17.5148L22.4887 10.0792C22.3972 9.89462 22.208 9.77783 22.0002 9.77783C21.7925 9.77783 21.6033 9.89462 21.5118 10.0792L17.8147 17.5148L9.5459 18.7072C9.34107 18.7367 9.17037 18.8795 9.10609 19.0752C9.04181 19.2709 9.09556 19.4861 9.2441 19.6296L15.2267 25.4173L13.8146 33.59C13.7794 33.793 13.8637 33.9981 14.0315 34.1192C14.1996 34.2399 14.4219 34.2558 14.6053 34.1603L21.9999 30.3013L29.3956 34.1603C29.4755 34.2017 29.5623 34.2223 29.6491 34.2223C29.762 34.2223 29.8742 34.1873 29.9694 34.1192C30.1372 33.9981 30.2211 33.793 30.1862 33.59L28.7727 25.4173L34.756 19.6296C34.9046 19.4861 34.9579 19.2709 34.894 19.0752C34.8305 18.8795 34.6598 18.7367 34.4549 18.7072ZM27.8081 24.8413C27.6796 24.9656 27.6211 25.1444 27.6512 25.32L28.9263 32.6929L22.2541 29.2117C22.095 29.1292 21.9058 29.1292 21.7471 29.2117L15.076 32.6929L16.3496 25.32C16.3798 25.1444 16.3213 24.9656 16.1927 24.8413L10.7959 19.6202L18.2555 18.5446C18.4328 18.519 18.5864 18.4084 18.6656 18.2491L22.001 11.5411L25.3367 18.2491C25.4159 18.4084 25.5695 18.519 25.7467 18.5446L33.2064 19.6202L27.8081 24.8413Z" fill="#42196D"/>
</svg>
